<svg xmlns="http://www.w3.org/2000/svg" viewBox="0 0 200 300">
  <!-- Card Base -->
  <rect x="5" y="5" width="190" height="290" rx="15" ry="15" fill="white" stroke="black" stroke-width="2"/>
  
  <!-- Corner A -->
  <text x="20" y="40" font-family="Arial" font-size="32" font-weight="bold" fill="black">A</text>
  <path d="M20,50 L30,50 L25,42 Z" fill="black" transform="translate(0, 10) scale(0.6)"/>
  
  <!-- Center Spade (Simplified path) -->
  <path d="M100,60 C40,120 20,180 100,260 C180,180 160,120 100,60 M100,165 L100,280 L80,290 L120,290 L100,280" fill="black" transform="scale(0.8) translate(25, 20)"/>
  <path d="M100,80 C130,130 160,160 160,200 C160,230 140,250 100,210 C60,250 40,230 40,200 C40,160 70,130 100,80 Z M100,210 L100,260 L80,270 L120,270 L100,260" fill="black" />
  
  <!-- Bottom Corner A (Rotated) -->
  <g transform="rotate(180, 100, 150)">
      <text x="20" y="40" font-family="Arial" font-size="32" font-weight="bold" fill="black">A</text>
  </g>
</svg>
